<svg id="visual" viewBox="0 0 900 600" width="900" height="600" xmlns="http://www.w3.org/2000/svg" xmlns:xlink="http://www.w3.org/1999/xlink" version="1.1"><rect x="0" y="0" width="900" height="600" fill="#002233"></rect><path d="M0 478L21.5 477.8C43 477.7 86 477.3 128.8 461.7C171.7 446 214.3 415 257.2 406.5C300 398 343 412 385.8 429.8C428.7 447.7 471.3 469.3 514.2 468.5C557 467.7 600 444.3 642.8 427C685.7 409.7 728.3 398.3 771.2 398.3C814 398.3 857 409.7 878.5 415.3L900 421L900 601L878.5 601C857 601 814 601 771.2 601C728.3 601 685.7 601 642.8 601C600 601 557 601 514.2 601C471.3 601 428.7 601 385.8 601C343 601 300 601 257.2 601C214.3 601 171.7 601 128.8 601C86 601 43 601 21.5 601L0 601Z" fill="#0066FF" stroke-linecap="round" stroke-linejoin="miter"></path></svg>